# xmcd CD database file
#
# Track frame offsets:
#	150
#	12537
#	25517
#	39117
#	55117
#	67202
#	80887
#	93947
#	109915
#	126480
#	139460
#	155307
#
# Disc length: 3118 seconds
#
# Revision: 0
# Processed by: cddbd v1.4PL0 Copyright (c) Steve Scherf et al.
# Submitted via: Feurio! 1.61 - http://www.feurio.com
#
DISCID=a30c2c0c
DTITLE=JEVER MOUNTAIN BOYS - Bury The Bottle With Me (P)94
DYEAR=1900
DGENRE=
TTITLE0=Bury The Bottle With Me
TTITLE1=Skip A Rope
TTITLE2=Ace Of Spades
TTITLE3=It's Dark (In My Heart)
TTITLE4=Run For Your Life
TTITLE5=Photograph
TTITLE6=Yesterday Is Here
TTITLE7=Ill Die Happy
TTITLE8=Wings Of A Dove
TTITLE9=If You Are A Viper
TTITLE10=Wild And Blue
TTITLE11=Diamonds Don't Mean A Thing and Phantom Track Freebird
EXTD=
EXTT0=
EXTT1=
EXTT2=
EXTT3=
EXTT4=
EXTT5=
EXTT6=
EXTT7=
EXTT8=
EXTT9=
EXTT10=
EXTT11=
PLAYORDER=
